# xmcd CD database file
# Copyright (C) 1997 Ti Kan
# 
# Track frame offsets:
#     182
#     34612
#     57307
#     69257
#     83162
#     94632
#     107925
#     139987
#     150375
#     161447
#     172985
#     183335
#     195007
#     208832
# 
# Disc length: 2954 seconds
# 
# Revision: 1
# Processed by: cddbd v1.4b41PL1 Copyright (c) Steve Scherf et al.
# Submitted via: DiscPlay 4.0.2
# 
DISCID=ad0b880e
DTITLE=Ray Charles - The Ray Charles Collection
DYEAR=1900
DGENRE=
TTITLE0=Georgia on My Mind
TTITLE1=What'd I Say
TTITLE2=Can't You See Darling
TTITLE3=Someday
TTITLE4=She's on the Ball
TTITLE5=Alone in the City
TTITLE6=Come Rain or Come Shine
TTITLE7=Ain't That Fine
TTITLE8=A Sentimental Blues
TTITLE9=If I Give You My Love
TTITLE10=Sitting on Top of the World
TTITLE11=Ray Charles Blues
TTITLE12=I'm Going Down the River
TTITLE13=Baby Won't You Please Come Home
EXTD=
EXTT0=
EXTT1=
EXTT2=
EXTT3=
EXTT4=
EXTT5=
EXTT6=
EXTT7=
EXTT8=
EXTT9=
EXTT10=
EXTT11=
EXTT12=
EXTT13=
PLAYORDER=
